<?xml version="1.0" standalone="no"?><!DOCTYPE svg PUBLIC "-//W3C//DTD SVG 1.1//EN" "http://www.w3.org/Graphics/SVG/1.1/DTD/svg11.dtd"><svg t="1563519104343" class="icon" viewBox="0 0 1024 1024" version="1.1" xmlns="http://www.w3.org/2000/svg" p-id="1817" xmlns:xlink="http://www.w3.org/1999/xlink" width="200" height="200"><defs><style type="text/css"></style></defs><path d="M606.72 550.4h-221.866667c-9.386667 0-17.066667 7.68-17.066666 17.066667s7.68 17.066667 17.066666 17.066666h221.866667c9.386667 0 17.066667-7.68 17.066667-17.066666s-7.68-17.066667-17.066667-17.066667zM64.853333 524.8c-28.16 0-51.2 23.04-51.2 51.2s23.04 51.2 51.2 51.2 51.2-23.04 51.2-51.2-23.04-51.2-51.2-51.2z m0 76.8c-14.506667 0-25.6-11.093333-25.6-25.6s11.093333-25.6 25.6-25.6 25.6 11.093333 25.6 25.6-11.946667 25.6-25.6 25.6zM162.986667 285.866667h-21.333334V264.533333c0-6.826667-5.973333-12.8-12.8-12.8s-12.8 5.973333-12.8 12.8v21.333334h-21.333333c-6.826667 0-12.8 5.973333-12.8 12.8s5.973333 12.8 12.8 12.8h21.333333V332.8c0 6.826667 5.973333 12.8 12.8 12.8s12.8-5.973333 12.8-12.8v-21.333333h21.333334c6.826667 0 12.8-5.973333 12.8-12.8s-5.973333-12.8-12.8-12.8zM546.986667 652.8h-162.133334c-9.386667 0-17.066667 7.68-17.066666 17.066667s7.68 17.066667 17.066666 17.066666h162.133334c9.386667 0 17.066667-7.68 17.066666-17.066666s-7.68-17.066667-17.066666-17.066667zM991.573333 691.2l15.36-15.36c5.12-5.12 5.12-12.8 0-17.92s-12.8-5.12-17.92 0l-15.36 15.36-15.36-15.36c-5.12-5.12-12.8-5.12-17.92 0s-5.12 12.8 0 17.92L955.733333 691.2l-15.36 15.36c-5.12 5.12-5.12 12.8 0 17.92s12.8 5.12 17.92 0l15.36-15.36 15.36 15.36c5.12 5.12 12.8 5.12 17.92 0s5.12-12.8 0-17.92l-15.36-15.36zM815.786667 174.933333c-28.16 0-51.2 23.04-51.2 51.2s23.04 51.2 51.2 51.2 51.2-23.04 51.2-51.2-23.04-51.2-51.2-51.2z m0 76.8c-14.506667 0-25.6-11.093333-25.6-25.6s11.093333-25.6 25.6-25.6 25.6 11.093333 25.6 25.6-11.946667 25.6-25.6 25.6z" p-id="1818"></path><path d="M764.586667 618.666667h-51.2v-264.533334c0-28.16-23.04-51.2-51.2-51.2h-341.333334c-28.16 0-51.2 23.04-51.2 51.2v443.733334c0 28.16 23.04 51.2 51.2 51.2h426.666667c37.546667 0 68.266667-30.72 68.266667-68.266667v-110.933333c0-28.16-23.04-51.2-51.2-51.2z m-443.733334 196.266666c-9.386667 0-17.066667-7.68-17.066666-17.066666v-443.733334c0-9.386667 7.68-17.066667 17.066666-17.066666h341.333334c9.386667 0 17.066667 7.68 17.066666 17.066666v426.666667c0 12.8 3.413333 23.893333 9.386667 34.133333H320.853333z m460.8-34.133333c0 18.773333-15.36 34.133333-34.133333 34.133333s-34.133333-15.36-34.133333-34.133333v-128h51.2c9.386667 0 17.066667 7.68 17.066666 17.066667v110.933333z" p-id="1819"></path><path d="M606.72 448h-221.866667c-9.386667 0-17.066667 7.68-17.066666 17.066667s7.68 17.066667 17.066666 17.066666h221.866667c9.386667 0 17.066667-7.68 17.066667-17.066666s-7.68-17.066667-17.066667-17.066667z" p-id="1820"></path></svg>