<?xml version="1.0" standalone="no"?><!DOCTYPE svg PUBLIC "-//W3C//DTD SVG 1.1//EN" "http://www.w3.org/Graphics/SVG/1.1/DTD/svg11.dtd"><svg t="1563805107354" class="icon" viewBox="0 0 1024 1024" version="1.1" xmlns="http://www.w3.org/2000/svg" p-id="2657" xmlns:xlink="http://www.w3.org/1999/xlink" width="32" height="32"><defs><style type="text/css"></style></defs><path d="M755.2 486.4v85.333333c0 136.533333-110.933333 243.2-243.2 243.2H328.533333c-136.533333 0-243.2-110.933333-243.2-243.2v-213.333333c0-17.066667 12.8-29.866667 29.866667-29.866667h136.533333c8.533333-8.533333 8.533333-21.333333 8.533334-29.866666 0-12.8-8.533333-21.333333-17.066667-29.866667-42.666667-38.4-51.2-106.666667-17.066667-153.6l12.8-21.333333c8.533333-12.8 29.866667-17.066667 42.666667-4.266667 17.066667 12.8 17.066667 29.866667 8.533333 42.666667l-12.8 21.333333c-17.066667 21.333333-12.8 51.2 8.533334 64 34.133333 25.6 46.933333 68.266667 34.133333 110.933333h85.333333c8.533333-8.533333 8.533333-21.333333 8.533334-29.866666 0-12.8-8.533333-21.333333-17.066667-29.866667-42.666667-38.4-51.2-106.666667-17.066667-153.6l12.8-21.333333c8.533333-12.8 29.866667-12.8 42.666667-4.266667 12.8 8.533333 17.066667 29.866667 8.533333 42.666667l-17.066666 21.333333c-17.066667 21.333333-12.8 51.2 8.533333 64 34.133333 25.6 46.933333 68.266667 34.133333 110.933333h85.333334c8.533333-8.533333 8.533333-21.333333 8.533333-29.866666 0-12.8-8.533333-21.333333-17.066667-29.866667-46.933333-38.4-55.466667-102.4-21.333333-149.333333l12.8-21.333334c8.533333-12.8 29.866667-12.8 42.666667-4.266666 12.8 8.533333 17.066667 29.866667 8.533333 42.666666l-12.8 21.333334c-17.066667 21.333333-12.8 51.2 8.533333 64 34.133333 25.6 46.933333 68.266667 34.133334 110.933333H725.333333c17.066667 0 29.866667 12.8 29.866667 29.866667V426.666667c55.466667-12.8 115.2 8.533333 149.333333 55.466666 34.133333 46.933333 42.666667 106.666667 17.066667 162.133334-25.6 51.2-76.8 85.333333-136.533333 85.333333-12.8 0-21.333333-4.266667-25.6-12.8-4.266667-8.533333-4.266667-21.333333 0-29.866667 4.266667-8.533333 17.066667-17.066667 25.6-12.8 34.133333 0 68.266667-21.333333 85.333333-55.466666 12.8-34.133333 8.533333-72.533333-17.066667-98.133334-25.6-34.133333-59.733333-46.933333-98.133333-34.133333z m-183.466667-98.133333h-426.666666v183.466666c0 46.933333 21.333333 93.866667 55.466666 128 34.133333 34.133333 81.066667 55.466667 128 55.466667H512c46.933333 0 93.866667-21.333333 128-55.466667 34.133333-34.133333 55.466667-81.066667 55.466667-128V388.266667h-123.733334zM170.666667 878.933333h503.466666c4.266667 0 12.8 4.266667 17.066667 8.533334 4.266667 4.266667 8.533333 8.533333 8.533333 17.066666v17.066667c0 4.266667-4.266667 12.8-8.533333 17.066667-8.533333-4.266667-12.8 0-17.066667 0H170.666667c-4.266667 0-12.8-4.266667-17.066667-8.533334-4.266667-4.266667-8.533333-8.533333-8.533333-17.066666V896c0-4.266667 4.266667-12.8 8.533333-17.066667H170.666667z m0 0" p-id="2658" fill="#ffffff"></path></svg>