<?xml version="1.0" standalone="no"?><!DOCTYPE svg PUBLIC "-//W3C//DTD SVG 1.1//EN" "http://www.w3.org/Graphics/SVG/1.1/DTD/svg11.dtd"><svg t="1563588701195" class="icon" viewBox="0 0 1024 1024" version="1.1" xmlns="http://www.w3.org/2000/svg" p-id="3675" xmlns:xlink="http://www.w3.org/1999/xlink" width="200" height="200"><defs><style type="text/css"></style></defs><path d="M777.0112 859.3408H195.5328a33.4848 33.4848 0 0 1-33.4848-33.4336V115.7632a33.4848 33.4848 0 0 1 33.4848-33.4336h581.4784a33.4848 33.4848 0 0 1 33.4336 33.4336v710.144a33.4848 33.4848 0 0 1-33.4336 33.4336zM195.5328 97.7408a18.0736 18.0736 0 0 0-18.0224 18.0224v710.144a18.0736 18.0736 0 0 0 18.0224 18.0224h581.4784a18.0736 18.0736 0 0 0 18.0224-18.0224V115.7632a18.0736 18.0736 0 0 0-18.0224-18.0224z" fill="#1afa29" p-id="3676"></path><path d="M256.9728 286.208a106.4448 106.4448 0 0 1-13.6192-0.7168 7.7312 7.7312 0 0 1-6.6048-8.6528 7.6288 7.6288 0 0 1 8.704-6.6048c4.4544 0.5632 105.7792 12.8 119.9616-91.1872a7.68 7.68 0 1 1 15.36 2.0992C367.7184 276.48 289.024 286.208 256.9728 286.208zM730.9824 286.208c-32.0512 0-110.7456-9.8816-123.7504-105.0624a7.7312 7.7312 0 0 1 6.6048-8.704 7.6288 7.6288 0 0 1 8.704 6.6048c14.1824 104.0896 115.6608 91.7504 119.8592 91.1872a7.68 7.68 0 1 1 2.0992 15.36 107.52 107.52 0 0 1-13.5168 0.6144zM512 383.3344h-46.08a7.7312 7.7312 0 1 1 0-15.36h46.08a7.7312 7.7312 0 1 1 0 15.36zM717.824 527.36H265.0112a7.7312 7.7312 0 0 1 0-15.36h452.8128a7.7312 7.7312 0 1 1 0 15.36zM620.032 625.2032H265.0112a7.7312 7.7312 0 1 1 0-15.36h355.0208a7.7312 7.7312 0 1 1 0 15.36zM671.488 733.2864H265.0112a7.7312 7.7312 0 0 1 0-15.36h406.4768a7.7312 7.7312 0 0 1 0 15.36z" fill="#1afa29" p-id="3677"></path><path d="M168.0896 795.0336H84.8896a33.4848 33.4848 0 0 1-33.4336-33.4848V35.84A33.4848 33.4848 0 0 1 84.8896 2.56h581.4784a33.4848 33.4848 0 0 1 33.4336 33.28v50.6368a7.7312 7.7312 0 0 1-15.36 0V35.84a18.0224 18.0224 0 0 0-18.0224-17.9712H84.8896A18.0224 18.0224 0 0 0 66.8672 35.84v725.7088a18.0736 18.0736 0 0 0 18.0224 18.0224h83.2a7.7312 7.7312 0 0 1 0 15.36zM820.736 936.5504a5.12 5.12 0 0 1-3.5328-8.9088l87.5008-82.3296a5.12 5.12 0 0 1 7.0656 7.4752L824.32 935.1168a5.12 5.12 0 0 1-3.584 1.4336zM854.1696 1000.8576a5.12 5.12 0 0 1-3.5328-1.4336 5.12 5.12 0 0 1 0-7.2704l118.3232-123.4944a5.12 5.12 0 0 1 7.3216 0 5.12 5.12 0 0 1 0 7.2704l-118.3232 123.4944a5.12 5.12 0 0 1-3.7888 1.4336z" fill="#1afa29" p-id="3678"></path><path d="M77.1584 993.1264a375.6544 28.3136 0 1 0 751.3088 0 375.6544 28.3136 0 1 0-751.3088 0Z" fill="#1afa29" opacity=".4" p-id="3679"></path></svg>