<?xml version="1.0" standalone="no"?><!DOCTYPE svg PUBLIC "-//W3C//DTD SVG 1.1//EN" "http://www.w3.org/Graphics/SVG/1.1/DTD/svg11.dtd"><svg t="1563865364015" class="icon" viewBox="0 0 1024 1024" version="1.1" xmlns="http://www.w3.org/2000/svg" p-id="3056" xmlns:xlink="http://www.w3.org/1999/xlink" width="200" height="200"><defs><style type="text/css"></style></defs><path d="M486.344 546.52m-458.818 0a458.818 458.818 0 1 0 917.636 0 458.818 458.818 0 1 0-917.636 0Z" fill="#FDDF6D" p-id="3057"></path><path d="M584.658 937.602c-253.398 0-458.816-205.418-458.816-458.816 0-135.38 58.646-257.05 151.906-341.03C129.208 213.704 27.52 368.234 27.52 546.518c0 253.398 205.418 458.816 458.816 458.816 118.018 0 225.614-44.572 306.91-117.784-62.58 31.998-133.474 50.052-208.588 50.052z" fill="#FCC56B" p-id="3058"></path><path d="M332.348 36.48l55.87 113.202a31.95 31.95 0 0 0 24.06 17.48l124.926 18.152c26.212 3.808 36.676 36.02 17.71 54.508l-90.398 88.116a31.96 31.96 0 0 0-9.19 28.284l21.34 124.42c4.478 26.104-22.924 46.012-46.368 33.688l-111.738-58.744a31.944 31.944 0 0 0-29.74 0l-111.738 58.744c-23.444 12.324-50.844-7.584-46.368-33.688l21.34-124.42a31.96 31.96 0 0 0-9.19-28.284l-90.398-88.116c-18.966-18.488-8.502-50.698 17.71-54.508l124.926-18.152a31.956 31.956 0 0 0 24.06-17.48l55.87-113.202c11.724-23.752 45.594-23.752 57.316 0zM845.892 187.926l36.224 73.394a20.72 20.72 0 0 0 15.6 11.334l80.996 11.77c16.992 2.468 23.78 23.354 11.482 35.34l-58.61 57.128a20.726 20.726 0 0 0-5.958 18.34l13.834 80.666c2.902 16.926-14.862 29.832-30.062 21.84l-72.444-38.088a20.714 20.714 0 0 0-19.282 0l-72.444 38.088c-15.198 7.992-32.966-4.916-30.062-21.84l13.834-80.666a20.726 20.726 0 0 0-5.958-18.34l-58.61-57.128c-12.296-11.986-5.51-32.87 11.482-35.34l80.996-11.77a20.712 20.712 0 0 0 15.6-11.334l36.224-73.394c7.6-15.402 29.56-15.402 37.158 0z" fill="#FFFF00" p-id="3059"></path><path d="M315.41 173.542l22.846 46.292a13.062 13.062 0 0 0 9.84 7.148l51.086 7.424c10.718 1.558 15 14.728 7.242 22.288l-36.968 36.034a13.064 13.064 0 0 0-3.758 11.568l8.726 50.88c1.832 10.674-9.374 18.814-18.962 13.776l-45.692-24.022c-3.808-2-8.354-2-12.162 0l-45.692 24.022c-9.586 5.04-20.79-3.1-18.962-13.776l8.726-50.88a13.08 13.08 0 0 0-3.758-11.568l-36.968-36.034c-7.754-7.56-3.476-20.73 7.242-22.288l51.086-7.424a13.076 13.076 0 0 0 9.84-7.148l22.846-46.292c4.798-9.71 18.648-9.71 23.442 0zM833.332 289.562l11.734 23.778a6.704 6.704 0 0 0 5.054 3.67l26.238 3.812c5.506 0.798 7.702 7.566 3.72 11.448l-18.986 18.512a6.714 6.714 0 0 0-1.932 5.94l4.482 26.134c0.94 5.482-4.816 9.664-9.738 7.076l-23.468-12.34a6.71 6.71 0 0 0-6.246 0l-23.468 12.34c-4.926 2.588-10.68-1.592-9.738-7.076l4.482-26.134a6.7 6.7 0 0 0-1.932-5.94l-18.986-18.508c-3.984-3.882-1.784-10.65 3.72-11.448l26.238-3.812a6.714 6.714 0 0 0 5.054-3.67l11.734-23.778c2.464-4.992 9.576-4.992 12.038-0.004z" fill="#FC4C59" p-id="3060"></path><path d="M579.896 849.502c-102.57 0-185.72-83.15-185.72-185.72h371.44c0 102.57-83.146 185.72-185.72 185.72z" fill="#7F184C" p-id="3061"></path><path d="M439.492 663.782v28.99c0 12.224 9.91 22.132 22.132 22.132h236.544c12.224 0 22.132-9.91 22.132-22.132v-28.99H439.492z" fill="#F2F2F2" p-id="3062"></path><path d="M583.796 772.454c-50.202-23.324-105.912-19.934-151.088 4.256 33.946 44.244 87.328 72.794 147.404 72.794a185.026 185.026 0 0 0 74.424-15.56c-16.72-25.872-40.694-47.532-70.74-61.49z" fill="#FC4C59" p-id="3063"></path><path d="M1003.222 333.126c10.814-10.54 14.634-26.01 9.968-40.372-4.668-14.362-16.852-24.634-31.796-26.806L900.4 254.18a2.056 2.056 0 0 1-1.546-1.124L862.632 179.66c-6.684-13.542-20.216-21.952-35.314-21.952-15.102 0-28.636 8.412-35.318 21.952l-0.008 0.012c-42.02-35.096-89.236-62.426-140.686-81.368-9.676-3.566-20.402 1.394-23.964 11.068-3.564 9.674 1.394 20.402 11.068 23.964 50.24 18.496 96.1 45.69 136.536 80.876l-19.168 38.838a2.046 2.046 0 0 1-1.546 1.124l-80.996 11.77c-14.944 2.172-27.126 12.444-31.794 26.804-4.666 14.362-0.846 29.832 9.968 40.372l58.61 57.13c0.482 0.47 0.704 1.152 0.592 1.816l-13.838 80.666c-2.554 14.882 3.45 29.644 15.664 38.52 6.904 5.018 14.982 7.566 23.116 7.566 6.26 0 12.55-1.508 18.364-4.564l72.444-38.088c0.598-0.316 1.31-0.314 1.908 0l72.444 38.088a39.194 39.194 0 0 0 24.84 4c0.598 9.4 0.934 18.824 0.934 28.26 0 242.702-197.452 440.15-440.15 440.15S46.186 789.22 46.186 546.518c0-80.174 21.504-157.824 62.364-225.964l21.286 20.75a13.286 13.286 0 0 1 3.822 11.764l-21.34 124.42c-3.28 19.134 4.434 38.104 20.138 49.512 8.872 6.448 19.252 9.724 29.706 9.724 8.046 0 16.132-1.942 23.606-5.868l111.738-58.744a13.292 13.292 0 0 1 12.368 0l111.738 58.744c17.18 9.032 37.612 7.556 53.31-3.852 15.704-11.408 23.418-30.382 20.138-49.512l-21.34-124.42a13.296 13.296 0 0 1 3.822-11.766l90.4-88.116c13.896-13.548 18.808-33.43 12.806-51.89-5.996-18.458-21.654-31.664-40.864-34.454l-124.928-18.152a13.3 13.3 0 0 1-10.008-7.27l-12.336-24.996a442.704 442.704 0 0 1 93.718-10.056 18.668 18.668 0 0 0 0-37.332 479.57 479.57 0 0 0-110.72 12.938L349.078 28.22C340.496 10.814 323.1 0 303.69 0s-36.804 10.814-45.394 28.218l-55.87 113.204a13.286 13.286 0 0 1-10.008 7.27l-124.926 18.156c-19.208 2.792-34.866 15.992-40.864 34.454-5.998 18.458-1.09 38.344 12.81 51.892l41.7 40.648c-47.33 75.72-72.284 162.742-72.284 252.676C8.854 809.804 223.05 1024 486.336 1024s477.482-214.196 477.482-477.482c0-33.132-3.442-66.212-10.182-98.378l-9.614-56.066a2.064 2.064 0 0 1 0.59-1.82l58.61-57.128zM62.132 212.834c0.766-2.364 3.35-7.974 10.728-9.046l124.926-18.152a50.594 50.594 0 0 0 38.114-27.692l55.87-113.202c3.3-6.688 9.434-7.408 11.918-7.408 2.486 0 8.618 0.722 11.918 7.408l55.87 113.202a50.608 50.608 0 0 0 38.114 27.692l124.926 18.152c7.382 1.072 9.962 6.684 10.732 9.046s1.976 8.42-3.364 13.624l-90.398 88.116a50.624 50.624 0 0 0-14.558 44.806l21.34 124.42c1.262 7.35-3.278 11.54-5.288 12.998-2.008 1.458-7.396 4.48-13.996 1.01l-111.738-58.744a50.592 50.592 0 0 0-47.112 0l-111.738 58.744c-6.598 3.47-11.986 0.448-13.996-1.012-2.01-1.458-6.548-5.65-5.288-12.998l21.34-124.424a50.61 50.61 0 0 0-14.558-44.806l-90.398-88.11c-5.34-5.206-4.132-11.262-3.364-13.624z m856.424 150.69a39.384 39.384 0 0 0-11.326 34.86l9.084 52.964c0.07 0.704 0.17 1.412 0.322 2.118 0.102 0.472 0.186 0.948 0.286 1.422l4.144 24.162c0.068 0.408 0.214 1.256-0.816 2.006-1.028 0.75-1.8 0.348-2.162 0.156l-72.444-38.084a39.362 39.362 0 0 0-36.65 0l-72.444 38.088c-0.366 0.194-1.134 0.592-2.162-0.156-1.03-0.75-0.884-1.6-0.816-2.008l13.84-80.672a39.38 39.38 0 0 0-11.328-34.856l-58.61-57.13c-0.298-0.288-0.916-0.89-0.52-2.106 0.394-1.214 1.246-1.338 1.654-1.398l80.996-11.77a39.388 39.388 0 0 0 29.656-21.544l25.424-51.516c0.07-0.14 0.142-0.278 0.206-0.418l10.59-21.458c0.182-0.37 0.564-1.144 1.842-1.144 1.276 0 1.658 0.774 1.84 1.144l36.224 73.394a39.386 39.386 0 0 0 29.654 21.542l80.996 11.77c0.41 0.06 1.264 0.184 1.658 1.398 0.394 1.214-0.224 1.814-0.52 2.106l-58.618 57.13z" fill="" p-id="3064"></path><path d="M375.512 663.782c0 112.698 91.686 204.386 204.386 204.386s204.386-91.686 204.386-204.386a18.666 18.666 0 0 0-18.666-18.666H394.174c-10.306 0-18.662 8.358-18.662 18.666z m370.404 18.664c-9.308 83.362-80.212 148.39-166.02 148.39s-156.712-65.028-166.02-148.39h332.04z" fill="" p-id="3065"></path><path d="M576.26 97.16m-18.666 0a18.666 18.666 0 1 0 37.332 0 18.666 18.666 0 1 0-37.332 0Z" fill="" p-id="3066"></path></svg>