<?xml version="1.0" standalone="no"?><!DOCTYPE svg PUBLIC "-//W3C//DTD SVG 1.1//EN" "http://www.w3.org/Graphics/SVG/1.1/DTD/svg11.dtd"><svg t="1563865619491" class="icon" viewBox="0 0 1024 1024" version="1.1" xmlns="http://www.w3.org/2000/svg" p-id="3896" xmlns:xlink="http://www.w3.org/1999/xlink" width="200" height="200"><defs><style type="text/css"></style></defs><path d="M512.003 512.002m-491.986 0a491.986 491.986 0 1 0 983.972 0 491.986 491.986 0 1 0-983.972 0Z" fill="#FDDF6D" p-id="3897"></path><path d="M382.785 561.106c-7.72 0-15.072-4.492-18.354-12.02-4.42-10.132 0.214-21.928 10.344-26.348l82.108-35.804-82.188-36.286c-10.114-4.464-14.69-16.282-10.228-26.396 4.464-10.114 16.29-14.688 26.392-10.226l123.92 54.706a20.012 20.012 0 1 1-0.082 36.656l-123.92 54.04a19.872 19.872 0 0 1-7.992 1.678zM891.773 549.09a20.014 20.014 0 0 1-18.354 12.02 19.92 19.92 0 0 1-7.99-1.674l-123.92-54.04a20.014 20.014 0 0 1-0.082-36.656l123.92-54.706c10.106-4.464 21.928 0.112 26.392 10.226 4.464 10.114-0.114 21.93-10.228 26.396l-82.188 36.286 82.108 35.804c10.132 4.418 14.762 16.212 10.342 26.344z" fill="" p-id="3898"></path><path d="M617.431 931.354c-271.716 0-491.984-220.268-491.984-491.984 0-145.168 62.886-275.632 162.888-365.684-159.28 81.438-268.32 247.14-268.32 438.312 0 271.716 220.268 491.984 491.984 491.984 126.548 0 241.924-47.794 329.096-126.298-67.1 34.312-143.122 53.67-223.664 53.67z" fill="#FCC56B" p-id="3899"></path><path d="M490.755 793.098a19.966 19.966 0 0 1-14.154-5.86c-7.816-7.82-7.816-20.49 0-28.306l32.392-32.392c7.82-7.814 20.492-7.814 28.304 0l17.196 17.194 24.856-24.858a20.024 20.024 0 0 1 28.308 0.002l25.552 25.554 28.34-28.344c7.82-7.814 20.49-7.814 28.306 0l23.462 23.466 18.94-18.936c7.816-7.816 20.492-7.812 28.3 0l33.438 33.436c7.82 7.816 7.82 20.49 0.002 28.304-7.82 7.82-20.492 7.816-28.304 0.002l-19.288-19.286-18.94 18.936c-7.816 7.816-20.49 7.812-28.304 0l-23.462-23.466-28.34 28.344a20.024 20.024 0 0 1-28.308-0.002l-25.552-25.554-24.856 24.858c-7.82 7.814-20.492 7.814-28.304 0l-17.196-17.194-18.238 18.24a19.956 19.956 0 0 1-14.15 5.862z" fill="" p-id="3900"></path><path d="M940.973 232.388c-52.914-81.02-127.222-145.202-214.886-185.61a20.012 20.012 0 0 0-26.556 9.8c-4.624 10.04-0.24 21.928 9.8 26.556 80.824 37.252 149.336 96.434 198.128 171.144 50.056 76.642 76.512 165.762 76.512 257.724 0 260.246-211.726 471.966-471.97 471.966S40.031 772.246 40.031 512.002 251.755 40.03 511.999 40.03c11.056 0 20.014-8.958 20.014-20.014S523.055 0 511.999 0C229.681 0 0.001 229.682 0.001 512.002c0 282.316 229.68 511.996 511.998 511.996s511.998-229.68 511.998-511.996c0.004-99.758-28.708-196.446-83.024-279.614z" fill="" p-id="3901"></path><path d="M508.993 726.534L476.601 758.926c-7.816 7.82-7.816 20.49 0 28.306 3.91 3.906 9.034 5.86 14.154 5.86s10.244-1.954 14.154-5.86l18.238-18.24 17.194 17.196a20.02 20.02 0 0 0 28.308-0.002l24.856-24.856 25.552 25.552a20.014 20.014 0 0 0 28.308 0.002l28.34-28.344 23.462 23.466a20.028 20.028 0 0 0 28.308 0.002l18.936-18.94 19.288 19.286c7.814 7.814 20.486 7.816 28.304-0.002 7.816-7.816 7.816-20.49-0.002-28.304l-33.438-33.436c-7.814-7.814-20.486-7.814-28.304 0l-18.936 18.94-23.462-23.466a20.014 20.014 0 0 0-28.308-0.002l-28.34 28.344-25.552-25.554a20.014 20.014 0 0 0-28.308 0l-24.856 24.858-17.194-17.196c-7.822-7.812-20.492-7.812-28.31-0.002z" fill="" p-id="3902"></path><path d="M649.489 40.03m-20.014 0a20.014 20.014 0 1 0 40.028 0 20.014 20.014 0 1 0-40.028 0Z" fill="" p-id="3903"></path></svg>