<?xml version="1.0" standalone="no"?><!DOCTYPE svg PUBLIC "-//W3C//DTD SVG 1.1//EN" "http://www.w3.org/Graphics/SVG/1.1/DTD/svg11.dtd"><svg t="1563865561779" class="icon" viewBox="0 0 1024 1024" version="1.1" xmlns="http://www.w3.org/2000/svg" p-id="3758" xmlns:xlink="http://www.w3.org/1999/xlink" width="200" height="200"><defs><style type="text/css"></style></defs><path d="M512.002 512.002m-491.988 0a491.988 491.988 0 1 0 983.976 0 491.988 491.988 0 1 0-983.976 0Z" fill="#FDDF6D" p-id="3759"></path><path d="M300.576 481.542c-36.536 0-66.156 29.62-66.156 66.156h132.314c-0.004-36.536-29.622-66.156-66.158-66.156zM877.628 472.678c-36.536 0-66.158 29.62-66.158 66.156h132.314c0.002-36.538-29.616-66.156-66.156-66.156z" fill="#F9A880" p-id="3760"></path><path d="M617.43 931.356c-271.716 0-491.986-220.268-491.986-491.986 0-145.168 62.886-275.632 162.888-365.684C129.054 155.124 20.014 320.828 20.014 512c0 271.716 220.268 491.986 491.986 491.986 126.548 0 241.924-47.796 329.098-126.298-67.106 34.31-143.124 53.668-223.668 53.668z" fill="#FCC56B" p-id="3761"></path><path d="M492.588 379.726c-11.054 0-20.014-8.962-20.014-20.014 0-25.816-21.004-46.818-46.818-46.818s-46.818 21.004-46.818 46.818c0 11.054-8.962 20.014-20.014 20.014-11.054 0-20.014-8.962-20.014-20.014 0-47.888 38.96-86.848 86.848-86.848s86.848 38.96 86.848 86.848c-0.002 11.054-8.964 20.014-20.018 20.014zM830.634 379.726c-11.054 0-20.014-8.962-20.014-20.014 0-25.816-21.004-46.818-46.818-46.818-25.814 0-46.818 21.004-46.818 46.818 0 11.054-8.962 20.014-20.014 20.014s-20.014-8.962-20.014-20.014c0-47.888 38.96-86.848 86.848-86.848s86.848 38.96 86.848 86.848c-0.004 11.054-8.964 20.014-20.018 20.014zM600.658 795.232c-53.02 0-102-28.8-127.822-75.16-5.38-9.658-1.91-21.848 7.744-27.226 9.656-5.38 21.846-1.91 27.226 7.744 18.764 33.686 54.342 54.608 92.852 54.608 37.528 0 73.512-21.136 93.908-55.16 5.684-9.478 17.978-12.558 27.458-6.874 9.482 5.684 12.558 17.976 6.874 27.458-27.588 46.024-76.728 74.61-128.24 74.61z" fill="#7F184C" p-id="3762"></path><path d="M934.5 222.718c-57.164-83.336-136.698-147.41-230.004-185.294-10.242-4.156-21.914 0.774-26.076 11.016-4.158 10.242 0.774 21.914 11.016 26.076 86.01 34.922 159.338 94 212.05 170.848 53.96 78.66 82.48 170.864 82.48 266.638 0 260.248-211.724 471.97-471.97 471.97S40.03 772.244 40.03 512 251.752 40.03 512 40.03c11.054 0 20.014-8.962 20.014-20.014S523.054 0 512 0C229.68 0 0 229.68 0 512s229.68 512 512 512 512-229.68 512-512c0-103.894-30.948-203.926-89.5-289.282z" fill="" p-id="3763"></path><path d="M492.588 379.726c11.054 0 20.014-8.962 20.014-20.014 0-47.888-38.962-86.848-86.848-86.848s-86.848 38.96-86.848 86.848c0 11.054 8.962 20.014 20.014 20.014 11.054 0 20.014-8.962 20.014-20.014 0-25.816 21.002-46.818 46.818-46.818s46.818 21.004 46.818 46.818c0.004 11.054 8.964 20.014 20.018 20.014zM716.982 359.712c0-25.816 21.002-46.818 46.818-46.818s46.818 21.004 46.818 46.818c0 11.054 8.962 20.014 20.014 20.014s20.014-8.962 20.014-20.014c0-47.888-38.962-86.848-86.848-86.848-47.886 0-86.848 38.96-86.848 86.848 0 11.054 8.962 20.014 20.014 20.014s20.018-8.96 20.018-20.014zM507.804 700.594c-5.38-9.656-17.57-13.124-27.226-7.744-9.658 5.38-13.124 17.568-7.744 27.226 25.824 46.36 74.804 75.16 127.822 75.16 51.512 0 100.652-28.586 128.244-74.606 5.684-9.482 2.608-21.774-6.874-27.458-9.478-5.684-21.774-2.604-27.458 6.874-20.398 34.024-56.382 55.16-93.908 55.16-38.514-0.004-74.094-20.928-92.856-54.612z" fill="" p-id="3764"></path><path d="M628.142 34.028m-20.014 0a20.014 20.014 0 1 0 40.028 0 20.014 20.014 0 1 0-40.028 0Z" fill="" p-id="3765"></path></svg>