<?xml version="1.0" standalone="no"?><!DOCTYPE svg PUBLIC "-//W3C//DTD SVG 1.1//EN" "http://www.w3.org/Graphics/SVG/1.1/DTD/svg11.dtd"><svg t="1563865340573" class="icon" viewBox="0 0 1024 1024" version="1.1" xmlns="http://www.w3.org/2000/svg" p-id="2916" xmlns:xlink="http://www.w3.org/1999/xlink" width="200" height="200"><defs><style type="text/css"></style></defs><path d="M1003.986 512c0 271.716-220.268 491.986-491.986 491.986S20.014 783.716 20.014 512 240.284 20.014 512 20.014c65.424 0 127.868 12.77 184.97 35.954C877.02 129.07 1003.986 305.71 1003.986 512z" fill="#FDDF6D" p-id="2917"></path><path d="M617.43 931.356c-271.716 0-491.986-220.268-491.986-491.986 0-145.168 62.886-275.632 162.888-365.684C129.054 155.124 20.014 320.828 20.014 512c0 271.716 220.268 491.986 491.986 491.986 126.548 0 241.924-47.796 329.098-126.298-67.106 34.31-143.124 53.668-223.668 53.668z" fill="#FCC56B" p-id="2918"></path><path d="M492.588 379.724c-11.054 0-20.014-8.962-20.014-20.014 0-25.816-21.002-46.818-46.818-46.818s-46.818 21.004-46.818 46.818c0 11.054-8.962 20.014-20.014 20.014-11.054 0-20.014-8.962-20.014-20.014 0-47.888 38.962-86.848 86.848-86.848s86.848 38.96 86.848 86.848c-0.002 11.052-8.964 20.014-20.018 20.014zM830.634 379.724c-11.054 0-20.014-8.962-20.014-20.014 0-25.816-21.002-46.818-46.818-46.818s-46.818 21.004-46.818 46.818c0 11.054-8.962 20.014-20.014 20.014s-20.014-8.962-20.014-20.014c0-47.888 38.962-86.848 86.848-86.848 47.886 0 86.848 38.96 86.848 86.848-0.004 11.052-8.964 20.014-20.018 20.014z" fill="#7F184C" p-id="2919"></path><path d="M583.584 871.534c-142.222 0-257.514-115.292-257.514-257.514h515.028c0 142.22-115.294 257.514-257.514 257.514z" fill="#FFFFFF" p-id="2920"></path><path d="M300.576 481.542c-36.536 0-66.156 29.62-66.156 66.156h132.314c-0.004-36.536-29.622-66.156-66.158-66.156zM877.628 481.542c-36.536 0-66.158 29.62-66.158 66.156h132.314c0.002-36.536-29.616-66.156-66.156-66.156z" fill="#F9A880" p-id="2921"></path><path d="M351.386 725.498a257.446 257.446 0 0 0 23.97 40.03h416.456a257.352 257.352 0 0 0 23.97-40.03H351.386z" fill="#E6E6E6" p-id="2922"></path><path d="M935.748 224.546c-56.342-82.904-134.876-147.02-227.102-185.414-10.196-4.248-21.92 0.58-26.168 10.784s0.58 21.922 10.784 26.172c176.598 73.52 290.706 244.628 290.706 435.914 0 260.248-211.724 471.97-471.97 471.97S40.03 772.244 40.03 512 251.752 40.03 512 40.03c11.054 0 20.014-8.962 20.014-20.014S523.054 0 512 0C229.68 0 0 229.68 0 512s229.68 512 512 512 512-229.68 512-512c0-103.106-30.516-202.504-88.252-287.454z" fill="" p-id="2923"></path><path d="M378.936 359.71c0-25.816 21.004-46.818 46.818-46.818s46.818 21.002 46.818 46.818c0 11.054 8.962 20.014 20.014 20.014 11.054 0 20.014-8.962 20.014-20.014 0-47.888-38.96-86.848-86.848-86.848s-86.848 38.96-86.848 86.848c0 11.054 8.962 20.014 20.014 20.014 11.058 0 20.018-8.958 20.018-20.014zM763.8 272.864c-47.888 0-86.848 38.96-86.848 86.848 0 11.054 8.962 20.014 20.014 20.014s20.014-8.962 20.014-20.014c0-25.816 21.004-46.818 46.818-46.818 25.814 0 46.818 21.002 46.818 46.818 0 11.054 8.962 20.014 20.014 20.014s20.014-8.962 20.014-20.014c0.004-47.888-38.954-86.848-86.844-86.848zM306.054 614.018c0 153.03 124.5 277.53 277.53 277.53s277.53-124.5 277.53-277.53c0-11.054-8.962-20.014-20.014-20.014H326.068c-11.052 0-20.014 8.962-20.014 20.014z m514.194 20.016c-10.194 121.63-112.446 217.486-236.664 217.486S357.114 755.666 346.92 634.034h473.328z" fill="" p-id="2924"></path><path d="M631.29 35.012m-20.014 0a20.014 20.014 0 1 0 40.028 0 20.014 20.014 0 1 0-40.028 0Z" fill="" p-id="2925"></path></svg>